<mxfile host="app.diagrams.net" modified="2024-05-16T06:35:11.356Z" agent="Mozilla/5.0 (X11; Linux x86_64) AppleWebKit/537.36 (KHTML, like Gecko) Chrome/122.0.0.0 Safari/537.36" etag="5kheIrnqKhSshqFK0-sp" version="24.4.0" type="github">
  <diagram name="Page-1" id="e56a1550-8fbb-45ad-956c-1786394a9013">
    <mxGraphModel dx="1203" dy="2391" grid="1" gridSize="10" guides="1" tooltips="1" connect="1" arrows="1" fold="1" page="1" pageScale="1" pageWidth="1100" pageHeight="850" background="none" math="0" shadow="0">
      <root>
        <mxCell id="0" />
        <mxCell id="1" parent="0" />
        <mxCell id="JQSSAgJZN_e2AmT-dR_s-20" value="movie" style="swimlane;childLayout=stackLayout;horizontal=1;startSize=40;horizontalStack=0;rounded=1;fontSize=14;fontStyle=0;strokeWidth=2;resizeParent=0;resizeLast=1;shadow=0;dashed=0;align=center;arcSize=4;whiteSpace=wrap;html=1;strokeColor=default;verticalAlign=middle;fontFamily=Helvetica;fontColor=default;fillColor=default;" vertex="1" parent="1">
          <mxGeometry x="50" y="-1670" width="160" height="180" as="geometry" />
        </mxCell>
        <mxCell id="JQSSAgJZN_e2AmT-dR_s-24" value="movie_id&lt;div&gt;title&lt;/div&gt;&lt;div&gt;type&lt;/div&gt;&lt;div&gt;runtime&lt;/div&gt;&lt;div&gt;release_date&lt;/div&gt;&lt;div&gt;director&lt;/div&gt;&lt;div&gt;starring&lt;/div&gt;&lt;div&gt;&lt;br&gt;&lt;/div&gt;" style="text;html=1;align=center;verticalAlign=middle;resizable=0;points=[];autosize=1;strokeColor=none;fillColor=none;fontFamily=Helvetica;fontSize=12;fontColor=default;fontStyle=1;" vertex="1" parent="JQSSAgJZN_e2AmT-dR_s-20">
          <mxGeometry y="40" width="160" height="140" as="geometry" />
        </mxCell>
        <mxCell id="JQSSAgJZN_e2AmT-dR_s-30" value="customer" style="swimlane;childLayout=stackLayout;horizontal=1;startSize=40;horizontalStack=0;rounded=1;fontSize=14;fontStyle=0;strokeWidth=2;resizeParent=0;resizeLast=1;shadow=0;dashed=0;align=center;arcSize=4;whiteSpace=wrap;html=1;strokeColor=default;verticalAlign=middle;fontFamily=Helvetica;fontColor=default;fillColor=default;" vertex="1" parent="1">
          <mxGeometry x="600" y="-1670" width="160" height="180" as="geometry" />
        </mxCell>
        <mxCell id="JQSSAgJZN_e2AmT-dR_s-31" value="&lt;div&gt;c_id&lt;/div&gt;&lt;div&gt;name&lt;/div&gt;&lt;div&gt;phone&lt;/div&gt;" style="text;html=1;align=center;verticalAlign=middle;resizable=0;points=[];autosize=1;strokeColor=none;fillColor=none;fontFamily=Helvetica;fontSize=12;fontColor=default;fontStyle=1;" vertex="1" parent="JQSSAgJZN_e2AmT-dR_s-30">
          <mxGeometry y="40" width="160" height="140" as="geometry" />
        </mxCell>
        <mxCell id="JQSSAgJZN_e2AmT-dR_s-32" value="hall" style="swimlane;childLayout=stackLayout;horizontal=1;startSize=40;horizontalStack=0;rounded=1;fontSize=14;fontStyle=0;strokeWidth=2;resizeParent=0;resizeLast=1;shadow=0;dashed=0;align=center;arcSize=4;whiteSpace=wrap;html=1;strokeColor=default;verticalAlign=middle;fontFamily=Helvetica;fontColor=default;fillColor=default;" vertex="1" parent="1">
          <mxGeometry x="370" y="-1350" width="160" height="180" as="geometry" />
        </mxCell>
        <mxCell id="JQSSAgJZN_e2AmT-dR_s-33" value="&lt;div&gt;hall_id&lt;/div&gt;&lt;div&gt;mode&lt;/div&gt;&lt;div&gt;capacity&lt;/div&gt;&lt;div&gt;location&lt;/div&gt;" style="text;html=1;align=center;verticalAlign=middle;resizable=0;points=[];autosize=1;strokeColor=none;fillColor=none;fontFamily=Helvetica;fontSize=12;fontColor=default;fontStyle=1;" vertex="1" parent="JQSSAgJZN_e2AmT-dR_s-32">
          <mxGeometry y="40" width="160" height="140" as="geometry" />
        </mxCell>
        <mxCell id="JQSSAgJZN_e2AmT-dR_s-34" value="schedule" style="swimlane;childLayout=stackLayout;horizontal=1;startSize=40;horizontalStack=0;rounded=1;fontSize=14;fontStyle=0;strokeWidth=2;resizeParent=0;resizeLast=1;shadow=0;dashed=0;align=center;arcSize=4;whiteSpace=wrap;html=1;strokeColor=default;verticalAlign=middle;fontFamily=Helvetica;fontColor=default;fillColor=default;" vertex="1" parent="1">
          <mxGeometry x="50" y="-1340" width="160" height="180" as="geometry" />
        </mxCell>
        <mxCell id="JQSSAgJZN_e2AmT-dR_s-35" value="&lt;div&gt;schedule_id&lt;/div&gt;&lt;div&gt;date&lt;/div&gt;&lt;div&gt;time&lt;/div&gt;&lt;div&gt;price&lt;/div&gt;&lt;div&gt;number&lt;/div&gt;" style="text;html=1;align=center;verticalAlign=middle;resizable=0;points=[];autosize=1;strokeColor=none;fillColor=none;fontFamily=Helvetica;fontSize=12;fontColor=default;fontStyle=1;" vertex="1" parent="JQSSAgJZN_e2AmT-dR_s-34">
          <mxGeometry y="40" width="160" height="140" as="geometry" />
        </mxCell>
        <mxCell id="JQSSAgJZN_e2AmT-dR_s-36" value="ticket" style="swimlane;childLayout=stackLayout;horizontal=1;startSize=40;horizontalStack=0;rounded=1;fontSize=14;fontStyle=0;strokeWidth=2;resizeParent=0;resizeLast=1;shadow=0;dashed=0;align=center;arcSize=4;whiteSpace=wrap;html=1;strokeColor=default;verticalAlign=middle;fontFamily=Helvetica;fontColor=default;fillColor=default;" vertex="1" parent="1">
          <mxGeometry x="360" y="-1670" width="160" height="180" as="geometry" />
        </mxCell>
        <mxCell id="JQSSAgJZN_e2AmT-dR_s-37" value="&lt;div&gt;ticket_id&lt;/div&gt;&lt;div&gt;seat_num&lt;/div&gt;" style="text;html=1;align=center;verticalAlign=middle;resizable=0;points=[];autosize=1;strokeColor=none;fillColor=none;fontFamily=Helvetica;fontSize=12;fontColor=default;fontStyle=1;" vertex="1" parent="JQSSAgJZN_e2AmT-dR_s-36">
          <mxGeometry y="40" width="160" height="140" as="geometry" />
        </mxCell>
        <mxCell id="JQSSAgJZN_e2AmT-dR_s-44" value="" style="endArrow=none;html=1;rounded=0;fontFamily=Helvetica;fontSize=12;fontColor=default;fontStyle=1;exitX=-0.008;exitY=0.426;exitDx=0;exitDy=0;exitPerimeter=0;entryX=1.001;entryY=0.368;entryDx=0;entryDy=0;entryPerimeter=0;" edge="1" parent="1" source="JQSSAgJZN_e2AmT-dR_s-33" target="JQSSAgJZN_e2AmT-dR_s-35">
          <mxGeometry relative="1" as="geometry">
            <mxPoint x="-110" y="-1410" as="sourcePoint" />
            <mxPoint x="220" y="-1250" as="targetPoint" />
          </mxGeometry>
        </mxCell>
        <mxCell id="JQSSAgJZN_e2AmT-dR_s-45" value="N" style="resizable=0;html=1;whiteSpace=wrap;align=right;verticalAlign=bottom;strokeColor=default;fontFamily=Helvetica;fontSize=12;fontColor=default;fontStyle=1;fillColor=default;" connectable="0" vertex="1" parent="JQSSAgJZN_e2AmT-dR_s-44">
          <mxGeometry x="1" relative="1" as="geometry" />
        </mxCell>
        <mxCell id="JQSSAgJZN_e2AmT-dR_s-46" value="" style="endArrow=none;html=1;rounded=0;fontFamily=Helvetica;fontSize=12;fontColor=default;fontStyle=1;entryX=0.993;entryY=0.463;entryDx=0;entryDy=0;entryPerimeter=0;" edge="1" parent="1" target="JQSSAgJZN_e2AmT-dR_s-37">
          <mxGeometry relative="1" as="geometry">
            <mxPoint x="600" y="-1565" as="sourcePoint" />
            <mxPoint x="760" y="-1490" as="targetPoint" />
          </mxGeometry>
        </mxCell>
        <mxCell id="JQSSAgJZN_e2AmT-dR_s-47" value="N" style="resizable=0;html=1;whiteSpace=wrap;align=right;verticalAlign=bottom;strokeColor=default;fontFamily=Helvetica;fontSize=12;fontColor=default;fontStyle=1;fillColor=default;" connectable="0" vertex="1" parent="JQSSAgJZN_e2AmT-dR_s-46">
          <mxGeometry x="1" relative="1" as="geometry" />
        </mxCell>
        <mxCell id="JQSSAgJZN_e2AmT-dR_s-48" value="" style="endArrow=none;html=1;rounded=0;fontFamily=Helvetica;fontSize=12;fontColor=default;fontStyle=1;entryX=0.5;entryY=0;entryDx=0;entryDy=0;exitX=0.5;exitY=0.997;exitDx=0;exitDy=0;exitPerimeter=0;" edge="1" parent="1" source="JQSSAgJZN_e2AmT-dR_s-24" target="JQSSAgJZN_e2AmT-dR_s-34">
          <mxGeometry relative="1" as="geometry">
            <mxPoint x="80" y="-1400" as="sourcePoint" />
            <mxPoint x="240" y="-1400" as="targetPoint" />
          </mxGeometry>
        </mxCell>
        <mxCell id="JQSSAgJZN_e2AmT-dR_s-49" value="N" style="resizable=0;html=1;whiteSpace=wrap;align=right;verticalAlign=bottom;strokeColor=default;fontFamily=Helvetica;fontSize=12;fontColor=default;fontStyle=1;fillColor=default;" connectable="0" vertex="1" parent="JQSSAgJZN_e2AmT-dR_s-48">
          <mxGeometry x="1" relative="1" as="geometry" />
        </mxCell>
        <mxCell id="JQSSAgJZN_e2AmT-dR_s-50" value="" style="endArrow=none;html=1;rounded=0;fontFamily=Helvetica;fontSize=12;fontColor=default;fontStyle=1;" edge="1" parent="1" target="JQSSAgJZN_e2AmT-dR_s-37">
          <mxGeometry relative="1" as="geometry">
            <mxPoint x="210" y="-1340" as="sourcePoint" />
            <mxPoint x="370" y="-1340" as="targetPoint" />
          </mxGeometry>
        </mxCell>
        <mxCell id="JQSSAgJZN_e2AmT-dR_s-51" value="N" style="resizable=0;html=1;whiteSpace=wrap;align=right;verticalAlign=bottom;strokeColor=default;fontFamily=Helvetica;fontSize=12;fontColor=default;fontStyle=1;fillColor=default;" connectable="0" vertex="1" parent="JQSSAgJZN_e2AmT-dR_s-50">
          <mxGeometry x="1" relative="1" as="geometry" />
        </mxCell>
      </root>
    </mxGraphModel>
  </diagram>
</mxfile>
